<?xml version="1.0" standalone="no"?>
<!DOCTYPE svg PUBLIC "-//W3C//DTD SVG 20010904//EN"
 "http://www.w3.org/TR/2001/REC-SVG-20010904/DTD/svg10.dtd">
<svg version="1.0" xmlns="http://www.w3.org/2000/svg"
 width="64.000000pt" height="142.000000pt" viewBox="0 0 64.000000 142.000000"
 preserveAspectRatio="xMidYMid meet">

<g transform="translate(0.000000,142.000000) scale(0.100000,-0.100000)"
fill="#000000" stroke="none">
<path d="M280 1319 c-38 -15 -88 -68 -101 -106 -23 -70 19 -161 87 -189 107
-45 225 18 240 127 15 114 -116 212 -226 168z m146 -73 c39 -39 45 -89 17
-137 -18 -31 -67 -59 -103 -59 -36 0 -90 31 -105 61 -26 49 -19 97 19 135 30
30 40 34 86 34 46 0 56 -4 86 -34z"/>
<path d="M264 1185 c-12 -30 6 -65 40 -82 59 -28 126 8 126 67 0 40 -33 41
-52 3 -8 -17 -21 -28 -33 -28 -12 0 -25 11 -33 28 -14 29 -39 36 -48 12z"/>
<path d="M271 923 c-82 -40 -127 -182 -118 -367 6 -123 24 -201 66 -291 43
-92 75 -125 121 -125 46 0 74 29 119 123 44 92 62 169 68 293 14 279 -101 443
-256 367z m144 -67 c93 -99 93 -381 0 -579 -27 -56 -59 -97 -75 -97 -28 0 -71
70 -106 174 -51 149 -52 332 -3 447 28 63 60 89 112 89 32 0 46 -6 72 -34z"/>
<path d="M350 846 c0 -7 10 -35 23 -62 20 -44 22 -63 20 -189 -1 -77 -3 -153
-5 -170 -2 -22 2 -30 14 -33 28 -5 40 41 45 173 6 127 -9 218 -43 270 -17 27
-54 34 -54 11z"/>
<path d="M354 345 c-8 -20 4 -35 27 -35 14 0 19 7 19 25 0 18 -5 25 -20 25
-11 0 -23 -7 -26 -15z"/>
</g>
</svg>
